<svg xmlns="http://www.w3.org/2000/svg" width="512" height="512" viewBox="0 0 512 512" style="fill:RGB(48,55,70);"><path d="M511.5 468.347L373.445 341.894c62.404-84.03 52.382-203.343-26.49-275.583-39.693-36.353-89.72-54.3-139.614-54.296C151.375 12.018 95.58 34.604 54.8 79.13c-77.135 84.214-71.4 215.02 12.823 292.158 39.69 36.354 89.713 54.297 139.607 54.297 49.25 0 98.357-17.516 137.224-52.056l138.07 126.456 28.98-31.64zm-304.273-87.762c-40.52 0-79.306-15.09-109.214-42.483-31.87-29.188-50.46-69.04-52.355-112.212-1.898-43.176 13.135-84.5 42.322-116.368 30.563-33.367 74.068-52.505 119.37-52.51h.004c40.517 0 79.297 15.087 109.21 42.48 65.78 60.253 70.274 162.792 10.02 228.58-30.563 33.372-74.068 52.513-119.357 52.513z"/></svg>