<?xml version="1.0" encoding="UTF-8" standalone="no"?>
<!-- Created with Inkscape (http://www.inkscape.org/) -->

<svg
   xmlns:dc="http://purl.org/dc/elements/1.1/"
   xmlns:cc="http://creativecommons.org/ns#"
   xmlns:rdf="http://www.w3.org/1999/02/22-rdf-syntax-ns#"
   xmlns:svg="http://www.w3.org/2000/svg"
   xmlns="http://www.w3.org/2000/svg"
   version="1.1"
   width="285"
   height="86"
   viewBox="0 0 285 86"
   id="svg3067">
  <title
     id="title3069">Slice 1</title>
  <desc
     id="desc3071">Created with Sketch.</desc>
  <metadata
     id="metadata3085">
    <rdf:RDF>
      <cc:Work
         rdf:about="">
        <dc:format>image/svg+xml</dc:format>
        <dc:type
           rdf:resource="http://purl.org/dc/dcmitype/StillImage" />
        <dc:title>Slice 1</dc:title>
      </cc:Work>
    </rdf:RDF>
  </metadata>
  <defs
     id="defs3073" />
  <g
     id="Page-1"
     style="fill:#ffffff;fill-rule:evenodd;stroke:none">
    <g
       id="vamp_logo_blue"
       style="fill:#ffffff">
      <g
         id="g3077"
         style="fill:#ffffff">
        <g
           id="vamp"
           style="fill:#ffffff">
          <g
             id="Group"
             style="fill:#ffffff">
            <path
               d="M 22.68247,62.757456 0,3.2159733 l 17.289824,0 13.009063,37.1369847 12.953469,-37.1369847 17.345418,0 -22.682469,59.5414827 -15.232835,0 z m 99.62496,0 -3.66922,0 -5.89299,-8.17236 c -1.44546,1.297206 -2.97429,2.511003 -4.58653,3.641425 -1.61224,1.130423 -3.30785,2.112579 -5.08688,2.946498 -1.77903,0.833918 -3.604353,1.491777 -5.476037,1.973597 -1.871684,0.48182 -3.771136,0.722726 -5.698415,0.722726 -4.188124,0 -8.126013,-0.704188 -11.813786,-2.112583 -3.687773,-1.408396 -6.912209,-3.456098 -9.673406,-6.143169 -2.761197,-2.687071 -4.938618,-5.976367 -6.532329,-9.867986 -1.593711,-3.89162 -2.390554,-8.320587 -2.390554,-13.287035 0,-4.632881 0.796843,-8.885801 2.390554,-12.758889 1.593711,-3.873088 3.771132,-7.199447 6.532329,-9.979175 2.761197,-2.7797283 5.985633,-4.9386182 9.673406,-6.4767346 3.687773,-1.5381163 7.625662,-2.30716293 11.813786,-2.30716293 1.927279,0 3.835997,0.24090613 5.726212,0.72272573 1.890215,0.4818196 3.72481,1.1489444 5.50383,2.0013944 1.77903,0.85245 3.47464,1.8531372 5.08688,3.0020916 1.61224,1.1489543 3.12254,2.3905477 4.53094,3.7248168 l 5.89299,-7.0604741 3.66922,0 0,59.4302941 z M 107.01901,32.458569 c 0,-2.075531 -0.39843,-4.086171 -1.19528,-6.03198 -0.79686,-1.94581 -1.88094,-3.669216 -3.25227,-5.170269 -1.37133,-1.501054 -2.974283,-2.705584 -4.808904,-3.613629 -1.834621,-0.908045 -3.789667,-1.36206 -5.865198,-1.36206 -2.07553,0 -4.030576,0.352094 -5.865197,1.056291 -1.834621,0.704198 -3.428308,1.741948 -4.781109,3.113281 -1.352801,1.371332 -2.418347,3.066941 -3.196671,5.086877 -0.778324,2.019936 -1.16748,4.327076 -1.16748,6.921489 0,2.594413 0.389156,4.901553 1.16748,6.921489 0.778324,2.019936 1.84387,3.715544 3.196671,5.086877 1.352801,1.371333 2.946488,2.409083 4.781109,3.11328 1.834621,0.704198 3.789667,1.056292 5.865197,1.056292 2.075531,0 4.030577,-0.454016 5.865198,-1.36206 1.834621,-0.908045 3.437574,-2.112576 4.808904,-3.613629 1.37133,-1.501053 2.45541,-3.224459 3.25227,-5.170269 0.79685,-1.94581 1.19528,-3.95645 1.19528,-6.03198 l 0,0 z m 102.57146,30.298887 -15.12165,0 0,-37.804116 c 0,-1.037765 -0.19458,-2.019921 -0.58374,-2.946497 -0.38916,-0.926576 -0.93583,-1.741951 -1.64003,-2.446149 -0.7042,-0.704198 -1.51957,-1.250869 -2.44615,-1.640032 -0.92658,-0.389161 -1.90873,-0.58374 -2.9465,-0.58374 -1.03776,0 -2.01065,0.194579 -2.9187,0.58374 -0.90804,0.389163 -1.70489,0.935834 -2.39055,1.640032 -0.68567,0.704198 -1.22307,1.519573 -1.61224,2.446149 -0.38916,0.926576 -0.58374,1.908732 -0.58374,2.946497 l 0,37.804116 -15.17724,0 0,-37.804116 c 0,-1.037765 -0.19458,-2.019921 -0.58374,-2.946497 -0.38916,-0.926576 -0.93583,-1.741951 -1.64003,-2.446149 -0.7042,-0.704198 -1.51957,-1.250869 -2.44615,-1.640032 -0.92657,-0.389161 -1.90873,-0.58374 -2.94649,-0.58374 -1.03777,0 -2.01066,0.194579 -2.9187,0.58374 -0.90805,0.389163 -1.70489,0.935834 -2.39056,1.640032 -0.68567,0.704198 -1.22307,1.519573 -1.61223,2.446149 -0.38917,0.926576 -0.58374,1.908732 -0.58374,2.946497 l 0,37.804116 -15.17724,0 0,-59.5414827 3.66922,0 4.11398,4.5587316 c 2.11259,-1.7790261 4.43826,-3.1596038 6.97708,-4.1417744 2.53882,-0.9821707 5.17952,-1.4732487 7.92219,-1.4732487 2.77972,0 5.49455,0.5188749 8.14456,1.5566401 2.65001,1.0377652 4.97568,2.8352959 6.97708,5.392646 0.92658,-1.2601436 1.98286,-2.3349557 3.16888,-3.2244688 1.18601,-0.889513 2.43687,-1.6122316 3.75261,-2.1681772 1.31574,-0.5559457 2.67778,-0.9543674 4.08618,-1.1952772 1.4084,-0.2409098 2.79824,-0.3613629 4.16957,-0.3613629 3.15036,0 6.10609,0.5929998 8.86729,1.7790172 2.7612,1.1860174 5.17026,2.8075013 7.22726,4.8645003 2.057,2.0569987 3.67848,4.4753267 4.8645,7.2550547 1.18602,2.779728 1.77902,5.744727 1.77902,8.895086 l 0,37.804116 z m 26.35169,22.68247 -15.28843,0 0,-82.2239527 3.66922,0 6.05978,7.1716627 c 1.37133,-1.2972061 2.87236,-2.5202682 4.50314,-3.6692226 1.63077,-1.1489543 3.32638,-2.1403759 5.08687,-2.9742944 1.7605,-0.8339185 3.58583,-1.4917776 5.47604,-1.9735972 1.89022,-0.4818196 3.79894,-0.7227257 5.72621,-0.7227257 4.18813,0 8.12602,0.7505153 11.81379,2.2515686 3.68777,1.5010533 6.91221,3.6228808 9.67341,6.365546 2.76119,2.7426653 4.93861,6.0504923 6.53233,9.9235803 1.59371,3.873088 2.39055,8.163071 2.39055,12.870078 0,4.892322 -0.79684,9.293492 -2.39055,13.203643 -1.59372,3.910152 -3.77114,7.227244 -6.53233,9.951378 -2.7612,2.724134 -5.98564,4.808899 -9.67341,6.254357 -3.68777,1.445459 -7.62566,2.168178 -11.81379,2.168178 -1.33427,0 -2.65925,-0.14825 -3.97499,-0.444755 -1.31574,-0.296504 -2.61292,-0.694926 -3.8916,-1.195277 -1.27867,-0.500351 -2.5388,-1.065554 -3.78041,-1.695626 -1.24161,-0.630071 -2.43688,-1.278665 -3.58583,-1.9458 l 0,26.685259 z m 30.41007,-52.981357 c 0,-2.520287 -0.39842,-4.781099 -1.19527,-6.782503 -0.79686,-2.001405 -1.88094,-3.697013 -3.25227,-5.086878 -1.37133,-1.389864 -2.98355,-2.45541 -4.8367,-3.196671 -1.85315,-0.741261 -3.81747,-1.111886 -5.893,-1.111886 -2.07553,0 -4.03057,0.370625 -5.86519,1.111886 -1.83462,0.741261 -3.43758,1.806807 -4.80891,3.196671 -1.37133,1.389865 -2.45541,3.085473 -3.25227,5.086878 -0.79685,2.001404 -1.19527,4.262216 -1.19527,6.782503 0,2.409098 0.39842,4.614316 1.19527,6.61572 0.79686,2.001405 1.88094,3.706279 3.25227,5.114675 1.37133,1.408395 2.97429,2.501739 4.80891,3.280063 1.83462,0.778324 3.78966,1.16748 5.86519,1.16748 2.07553,0 4.03985,-0.389156 5.893,-1.16748 1.85315,-0.778324 3.46537,-1.871668 4.8367,-3.280063 1.37133,-1.408396 2.45541,-3.11327 3.25227,-5.114675 0.79685,-2.001404 1.19527,-4.206622 1.19527,-6.61572 l 0,0 z"
               id="path3081"
               style="fill:#ffffff" />
          </g>
        </g>
      </g>
    </g>
  </g>
</svg>
