<svg xmlns="http://www.w3.org/2000/svg" width="285" height="86" viewBox="0 0 285 86"><title>Slice 1</title><path d="M22.682 62.757L0 3.217h17.29L30.3 40.352 43.25 3.216h17.346l-22.683 59.54H22.682zm99.625 0h-3.67l-5.892-8.172c-1.445 1.297-2.974 2.51-4.586 3.642-1.614 1.13-3.31 2.112-5.088 2.946-1.78.834-3.605 1.492-5.476 1.974-1.872.48-3.77.722-5.7.722-4.187 0-8.125-.705-11.812-2.113-3.688-1.41-6.913-3.456-9.674-6.143-2.76-2.687-4.938-5.977-6.532-9.868-1.594-3.892-2.39-8.32-2.39-13.287 0-4.634.796-8.887 2.39-12.76 1.594-3.873 3.77-7.2 6.532-9.98 2.76-2.78 5.986-4.938 9.674-6.476C83.77 1.706 87.71.937 91.897.937c1.928 0 3.836.24 5.727.722 1.89.48 3.724 1.148 5.503 2 1.78.853 3.475 1.854 5.087 3.003 1.613 1.15 3.123 2.39 4.53 3.725l5.894-7.06h3.67v59.43zM107.02 32.46c0-2.077-.4-4.088-1.196-6.033-.797-1.946-1.88-3.67-3.253-5.17-1.37-1.502-2.973-2.706-4.807-3.614-1.835-.908-3.79-1.362-5.866-1.362-2.075 0-4.03.353-5.865 1.057-1.834.704-3.428 1.742-4.78 3.113-1.354 1.372-2.42 3.067-3.198 5.087-.778 2.02-1.167 4.327-1.167 6.922 0 2.593.39 4.9 1.167 6.92.78 2.02 1.844 3.716 3.197 5.087 1.354 1.37 2.948 2.41 4.782 3.113 1.835.704 3.79 1.057 5.865 1.057 2.076 0 4.03-.455 5.866-1.363 1.834-.908 3.437-2.112 4.808-3.613 1.373-1.5 2.457-3.224 3.254-5.17.797-1.945 1.195-3.956 1.195-6.03zm102.57 30.297h-15.12V24.953c0-1.037-.196-2.02-.585-2.946-.39-.927-.936-1.742-1.64-2.446-.704-.704-1.52-1.25-2.446-1.64-.928-.388-1.91-.583-2.948-.583-1.037 0-2.01.195-2.918.584-.908.39-1.705.936-2.39 1.64-.687.705-1.224 1.52-1.613 2.447-.388.926-.583 1.91-.583 2.946v37.804H164.17V24.953c0-1.037-.195-2.02-.584-2.946-.39-.927-.936-1.742-1.64-2.446-.704-.704-1.52-1.25-2.446-1.64-.927-.388-1.91-.583-2.946-.583-1.038 0-2.01.195-2.92.584-.907.39-1.704.936-2.39 1.64-.685.705-1.223 1.52-1.612 2.447-.39.926-.584 1.91-.584 2.946v37.804H133.87V3.217h3.67l4.114 4.558c2.113-1.78 4.44-3.16 6.977-4.142 2.54-.982 5.18-1.473 7.924-1.473 2.78 0 5.494.52 8.144 1.556 2.65 1.038 4.976 2.836 6.977 5.393.927-1.26 1.983-2.336 3.17-3.226 1.185-.89 2.436-1.612 3.752-2.168 1.315-.556 2.677-.954 4.086-1.195 1.408-.24 2.798-.36 4.17-.36 3.15 0 6.105.593 8.867 1.78 2.76 1.185 5.17 2.806 7.227 4.863 2.057 2.057 3.678 4.476 4.864 7.255 1.187 2.78 1.78 5.745 1.78 8.895v37.804zm26.352 22.683h-15.288V3.216h3.67l6.06 7.172c1.37-1.298 2.87-2.52 4.502-3.67 1.63-1.15 3.326-2.14 5.087-2.974 1.76-.834 3.586-1.492 5.476-1.973 1.89-.48 3.798-.722 5.725-.722 4.188 0 8.126.75 11.814 2.25 3.687 1.502 6.91 3.624 9.672 6.367 2.76 2.743 4.94 6.05 6.533 9.923 1.593 3.874 2.39 8.164 2.39 12.87 0 4.893-.797 9.294-2.39 13.204-1.594 3.91-3.772 7.227-6.533 9.952-2.76 2.724-5.985 4.808-9.673 6.254-3.69 1.445-7.627 2.168-11.815 2.168-1.334 0-2.66-.148-3.975-.445-1.316-.295-2.613-.694-3.892-1.194-1.278-.5-2.538-1.065-3.78-1.696-1.242-.63-2.437-1.278-3.586-1.945V85.44zm30.41-52.98c0-2.522-.398-4.783-1.195-6.784-.797-2-1.88-3.697-3.252-5.087-1.372-1.39-2.984-2.456-4.837-3.197-1.853-.742-3.817-1.112-5.893-1.112-2.076 0-4.03.37-5.865 1.113-1.835.74-3.438 1.806-4.81 3.196-1.37 1.39-2.455 3.085-3.25 5.086-.798 2-1.197 4.262-1.197 6.783 0 2.408.4 4.613 1.196 6.614.795 2.002 1.88 3.707 3.25 5.115 1.372 1.407 2.975 2.5 4.81 3.28 1.834.777 3.79 1.167 5.865 1.167 2.076 0 4.04-.39 5.893-1.168 1.853-.78 3.465-1.873 4.837-3.28 1.37-1.41 2.455-3.114 3.252-5.116.797-2 1.195-4.206 1.195-6.615z" fill="#fff" fill-rule="evenodd"/></svg>