<?xml version="1.0" encoding="iso-8859-1"?>
<!DOCTYPE svg PUBLIC "-//W3C//DTD SVG 1.1//EN" "http://www.w3.org/Graphics/SVG/1.1/DTD/svg11.dtd">
<svg  version="1.1" xmlns="http://www.w3.org/2000/svg" xmlns:xlink="http://www.w3.org/1999/xlink" x="0px" y="0px" width="512px"
	 height="512px" viewBox="0 0 512 512" enable-background="new 0 0 512 512" xml:space="preserve"><g id="1b1c9b208ed950244c86edd4d203b251"><path display="inline" d="M496.95,69.593l-54.546-54.537c-19.997-20.002-53.427-19.299-74.287,1.567L118.78,265.954l-1.898,1.898
		l-57.841,57.841l2.016,2.014h-0.002l-2.014-2.014L46.01,338.72l0.118,0.115c-5.14,6.077-9.087,13.921-11.598,23.246L2.436,453.116
		l-0.342,1.114c-4.228,16.235,0.07,32.752,11.495,44.182c11.424,11.42,27.941,15.719,44.176,11.49l92.155-32.431
		c9.323-2.511,17.165-6.458,23.241-11.596l0.116,0.116l13.031-13.037l-2.016-2.014h0.002l2.014,2.014l57.836-57.836l1.898-1.897
		l249.336-249.336C516.244,123.025,516.947,89.595,496.95,69.593z M160.521,440.707c-1.517,4.861-7.518,8.994-16.472,11.324
		l-52.507,18.485l-49.224-52.362l17.31-49.093l0.341-1.115c2.33-8.948,6.463-14.949,11.324-16.466
		c5.449-1.692,13.062,1.652,20.363,8.953l59.905,59.91C158.869,427.646,162.214,435.259,160.521,440.707z"></path></g></svg>