<?xml version="1.0" encoding="iso-8859-1"?>
<!DOCTYPE svg PUBLIC "-//W3C//DTD SVG 1.1//EN" "http://www.w3.org/Graphics/SVG/1.1/DTD/svg11.dtd">
<svg  version="1.1" xmlns="http://www.w3.org/2000/svg" xmlns:xlink="http://www.w3.org/1999/xlink" x="0px" y="0px" width="512px"
	 height="512px" viewBox="0 0 512 512" style="enable-background:new 0 0 512 512;" xml:space="preserve"><g id="7935ec95c421cee6d86eb22ecd143036"><path style="display: inline;" d="M511.5,214.818H108.079v-53.79H511.5V214.818z M511.5,27.395H108.079v53.79H511.5V27.395z
		 M511.5,295.501H108.079v53.791H511.5V295.501z M511.5,429.975H108.079v53.791H511.5V429.975z M27.395,27.395
		C12.54,27.395,0.5,39.437,0.5,54.289c0,14.853,12.04,26.896,26.895,26.896c14.855,0,26.895-12.042,26.895-26.896
		C54.289,39.437,42.25,27.395,27.395,27.395z M27.395,161.868c-14.855,0-26.895,12.04-26.895,26.895s12.04,26.895,26.895,26.895
		c14.855,0,26.895-12.04,26.895-26.895S42.25,161.868,27.395,161.868z M27.395,296.343c-14.855,0-26.895,12.039-26.895,26.894
		c0,14.855,12.04,26.895,26.895,26.895c14.855,0,26.895-12.039,26.895-26.895C54.289,308.382,42.25,296.343,27.395,296.343z
		 M27.395,430.816c-14.855,0-26.895,12.04-26.895,26.895s12.04,26.895,26.895,26.895c14.855,0,26.895-12.04,26.895-26.895
		S42.25,430.816,27.395,430.816z"></path></g></svg>