<?xml version="1.0" encoding="UTF-8"?>
<svg width="102px" height="102px" viewBox="0 0 102 102" version="1.1" xmlns="http://www.w3.org/2000/svg" xmlns:xlink="http://www.w3.org/1999/xlink">
    <!-- Generator: Sketch 42 (36781) - http://www.bohemiancoding.com/sketch -->
    <title>Disconnected</title>
    <desc>Created with Sketch.</desc>
    <defs></defs>
    <g id="Master" stroke="none" stroke-width="1" fill="none" fill-rule="evenodd">
        <g id="Error--message" transform="translate(-749.000000, -487.000000)" stroke-width="2">
            <g id="Disconnected" transform="translate(750.000000, 488.000000)">
                <path d="M77.1929825,71.9298246 L77.1929825,85.9649123" id="Stroke-744" stroke="#FF3D5A" stroke-linecap="round"></path>
                <path d="M77.1929825,90.9298246 L77.1929825,92.9698245" id="Stroke-744-Copy" stroke="#FF3D5A" stroke-linecap="round"></path>
                <path id="Stroke-745" stroke="#F1F6F7" stroke-linecap="round"></path>
                <path d="M49.122807,98.245614 L49.122807,0" id="Stroke-1495" stroke="#F1F6F7" stroke-linecap="round"></path>
                <path d="M49.122807,0 C48.7473684,0 48.3754386,0.0192982456 48.0017544,0.0280701754 C33.7070175,11.6070175 24.5614035,29.2929825 24.5614035,49.122807 C24.5614035,68.9526316 33.7070175,86.6385965 48.0017544,98.2175439 C48.3754386,98.2263158 48.7473684,98.245614 49.122807,98.245614" id="Stroke-1496" stroke="#F1F6F7" stroke-linecap="round"></path>
                <path d="M13.5057895,15.3126316 C23.6461404,22.2512281 35.9075439,26.3161404 49.1233333,26.3161404 C62.3373684,26.3161404 74.5987719,22.2512281 84.7391228,15.3126316" id="Stroke-1497" stroke="#F1F6F7" stroke-linecap="round"></path>
                <path d="M49.122807,70.1754386 C35.4754386,70.1754386 22.8508772,74.5175439 12.522807,81.877193" id="Stroke-1498" stroke="#F1F6F7" stroke-linecap="round"></path>
                <path d="M67.9425673,70.1754386 C60.8269995,70.1754386 53.9894766,71.3558181 47.6105263,73.5288382" id="Stroke-1498-Copy" stroke="#F1F6F7" stroke-linecap="round" transform="translate(57.776547, 71.852138) scale(-1, 1) translate(-57.776547, -71.852138) "></path>
                <path d="M73.6842105,49.122807 C73.6842105,29.2929825 64.5385965,11.6070175 50.2438596,0.0280701754 C49.8701754,0.0192982456 49.4982456,0 49.122807,0" id="Stroke-1499" stroke="#F1F6F7" stroke-linecap="round"></path>
                <path d="M73.6842105,69.9025879 C73.6842105,60.9860698 73.4726049,56.8120995 70.1376953,49.122807" id="Stroke-1499-Copy" stroke="#F1F6F7" stroke-linecap="round" transform="translate(71.910953, 59.512697) scale(1, -1) translate(-71.910953, -59.512697) "></path>
                <path d="M0,49.122807 L98.245614,49.122807" id="Stroke-1500" stroke="#F1F6F7" stroke-linecap="round"></path>
                <path d="M54.3875439,96.7349123 L75.1682456,61.1103509 C76.0068421,59.6735088 78.0822807,59.6735088 78.9191228,61.1103509 L88.8085965,78.0612281 C94.7384211,69.9436842 98.2454386,59.9454386 98.2454386,49.1226316 C98.2454386,21.992807 76.2524561,-0.000175438596 49.1226316,-0.000175438596 C21.992807,-0.000175438596 -0.000175438596,21.992807 -0.000175438596,49.1226316 C-0.000175438596,76.2524561 21.992807,98.2454386 49.1226316,98.2454386 C50.8050877,98.2454386 52.47,98.1594737 54.1085965,97.9945614 C54.0752632,97.5770175 54.1489474,97.1419298 54.3875439,96.7349123 L54.3875439,96.7349123 Z" id="Stroke-1501" stroke="#F1F6F7" stroke-linecap="round"></path>
                <path d="M97.825614,100 L56.2624561,100 C54.5870175,100 53.5431579,98.1824561 54.3870175,96.7350877 L75.1694737,61.1105263 C76.0063158,59.6736842 78.0817544,59.6736842 78.9203509,61.1105263 L99.7010526,96.7350877 C100.544912,98.1824561 99.5010526,100 97.825614,100 L97.825614,100 Z" id="Stroke-743" stroke="#FF3D5A" fill-opacity="0.5" fill="#FF3D5A"></path>
            </g>
        </g>
    </g>
</svg>