<svg xmlns="http://www.w3.org/2000/svg" width="512" height="512" viewBox="0 0 512 512"><path d="M496.95 69.593l-54.546-54.537c-19.997-20.002-53.427-19.3-74.287 1.567L118.78 265.953l-1.898 1.9-57.84 57.84 2.015 2.014h-.002l-2.014-2.014-13.03 13.027.118.115c-5.14 6.077-9.087 13.92-11.598 23.246L2.436 453.117l-.342 1.114c-4.228 16.235.07 32.752 11.495 44.182 11.423 11.42 27.94 15.72 44.175 11.49l92.155-32.43c9.323-2.512 17.165-6.46 23.24-11.597l.117.116 13.03-13.036-2.015-2.014h.002l2.014 2.014 57.836-57.836 1.898-1.897 249.336-249.335c20.866-20.86 21.57-54.29 1.572-74.292zM160.52 440.707c-1.516 4.86-7.517 8.994-16.47 11.324L91.54 470.517l-49.224-52.362 17.31-49.093.34-1.114c2.33-8.948 6.464-14.95 11.325-16.466 5.45-1.692 13.062 1.652 20.363 8.953l59.905 59.91c7.31 7.303 10.654 14.916 8.96 20.364z"/></svg>