<?xml version="1.0" standalone="no"?>
<!DOCTYPE svg PUBLIC "-//W3C//DTD SVG 20010904//EN"
 "http://www.w3.org/TR/2001/REC-SVG-20010904/DTD/svg10.dtd">
<svg version="1.0" xmlns="http://www.w3.org/2000/svg"
 width="700.000000pt" height="700.000000pt" viewBox="0 0 700.000000 700.000000"
 preserveAspectRatio="xMidYMid meet">
<metadata>
Created by potrace 1.11, written by Peter Selinger 2001-2013
</metadata>
<g transform="translate(0.000000,700.000000) scale(0.100000,-0.100000)"
fill="#000000" stroke="none">
<path d="M790 5981 c0 -2 34 -89 76 -195 42 -105 96 -243 121 -306 24 -63 51
-128 58 -145 7 -16 29 -70 48 -120 20 -49 119 -301 221 -558 102 -258 186
-472 186 -475 1 -4 9 -25 20 -47 11 -22 19 -43 20 -46 0 -4 8 -24 17 -45 9
-22 17 -41 18 -44 1 -3 5 -14 10 -25 4 -11 35 -87 67 -170 32 -82 63 -159 68
-170 5 -11 95 -238 200 -505 105 -267 195 -494 200 -505 8 -19 201 -504 445
-1125 183 -464 198 -500 210 -501 5 0 340 -1 744 -2 477 -1 738 2 746 8 7 6
49 109 95 230 45 121 88 234 95 250 7 17 23 60 36 96 l23 66 -23 59 c-13 32
-29 73 -36 89 -7 17 -29 73 -50 125 -20 52 -41 104 -46 115 -4 11 -22 56 -39
100 -17 44 -35 89 -40 100 -5 11 -300 749 -655 1640 -355 891 -663 1663 -685
1715 -21 52 -65 162 -98 245 l-60 150 -996 0 c-548 0 -996 -2 -996 -4z"/>
<path d="M3400 5978 c0 -6 499 -1267 519 -1313 5 -11 35 -85 66 -165 32 -80
136 -343 232 -585 96 -242 242 -611 325 -820 82 -209 156 -393 163 -410 31
-71 47 -111 50 -127 2 -9 16 -44 32 -79 l29 -62 41 109 c52 139 320 822 333
849 5 11 52 133 105 270 54 138 103 264 110 280 7 17 27 66 43 110 17 44 74
190 127 325 169 429 211 536 370 945 86 220 160 409 165 420 11 24 100 253
100 257 0 2 -632 3 -1405 3 -773 0 -1405 -3 -1405 -7z"/>
</g>
</svg>
