<?xml version="1.0" encoding="utf-8"?>
<!-- Generator: Adobe Illustrator 19.2.1, SVG Export Plug-In . SVG Version: 6.00 Build 0)  -->
<svg version="1.1" id="Layer_1" xmlns="http://www.w3.org/2000/svg" xmlns:xlink="http://www.w3.org/1999/xlink" x="0px" y="0px"
	 viewBox="0 0 40 40" style="enable-background:new 0 0 40 40;" xml:space="preserve">
<style type="text/css">
	.st0{fill:#214B60;}
</style>
<g>
	<g>
		<path class="st0" d="M9,15.5H6.5C6.2,15.5,6,15.3,6,15v-2.5C6,12.2,6.2,12,6.5,12H9c0.3,0,0.5,0.2,0.5,0.5V15
			C9.5,15.3,9.3,15.5,9,15.5z M7,14.5h1.5V13H7V14.5z"/>
	</g>
	<g>
		<path class="st0" d="M34,14.3H14c-0.3,0-0.5-0.2-0.5-0.5s0.2-0.5,0.5-0.5h20c0.3,0,0.5,0.2,0.5,0.5S34.3,14.3,34,14.3z"/>
	</g>
	<g>
		<path class="st0" d="M9,21.8H6.5c-0.3,0-0.5-0.2-0.5-0.5v-2.5c0-0.3,0.2-0.5,0.5-0.5H9c0.3,0,0.5,0.2,0.5,0.5v2.5
			C9.5,21.5,9.3,21.8,9,21.8z M7,20.8h1.5v-1.5H7V20.8z"/>
	</g>
	<g>
		<path class="st0" d="M34,20.5H14c-0.3,0-0.5-0.2-0.5-0.5s0.2-0.5,0.5-0.5h20c0.3,0,0.5,0.2,0.5,0.5S34.3,20.5,34,20.5z"/>
	</g>
	<g>
		<path class="st0" d="M9,28H6.5C6.2,28,6,27.8,6,27.5V25c0-0.3,0.2-0.5,0.5-0.5H9c0.3,0,0.5,0.2,0.5,0.5v2.5C9.5,27.8,9.3,28,9,28z
			 M7,27h1.5v-1.5H7V27z"/>
	</g>
	<g>
		<path class="st0" d="M34,26.8H14c-0.3,0-0.5-0.2-0.5-0.5s0.2-0.5,0.5-0.5h20c0.3,0,0.5,0.2,0.5,0.5S34.3,26.8,34,26.8z"/>
	</g>
</g>
</svg>
