<?xml version="1.0" encoding="utf-8"?>
<!-- Generator: Adobe Illustrator 19.2.1, SVG Export Plug-In . SVG Version: 6.00 Build 0)  -->
<svg version="1.1" id="Layer_1" xmlns="http://www.w3.org/2000/svg" xmlns:xlink="http://www.w3.org/1999/xlink" x="0px" y="0px"
	 viewBox="0 0 40 40" style="enable-background:new 0 0 40 40;" xml:space="preserve">
<style type="text/css">
	.st0{fill:#214B60;}
</style>
<g>
	<g>
		<path class="st0" d="M17.4,18.9H12c-0.8,0-1.5-0.7-1.5-1.5V12c0-0.8,0.7-1.5,1.5-1.5h5.4c0.8,0,1.5,0.7,1.5,1.5v5.4
			C18.9,18.2,18.2,18.9,17.4,18.9z M12,11.5c-0.3,0-0.5,0.2-0.5,0.5v5.4c0,0.3,0.2,0.5,0.5,0.5h5.4c0.3,0,0.5-0.2,0.5-0.5V12
			c0-0.3-0.2-0.5-0.5-0.5H12z"/>
	</g>
	<g>
		<path class="st0" d="M28,18.9h-5.4c-0.8,0-1.5-0.7-1.5-1.5V12c0-0.8,0.7-1.5,1.5-1.5H28c0.8,0,1.5,0.7,1.5,1.5v5.4
			C29.5,18.2,28.8,18.9,28,18.9z M22.6,11.5c-0.3,0-0.5,0.2-0.5,0.5v5.4c0,0.3,0.2,0.5,0.5,0.5H28c0.3,0,0.5-0.2,0.5-0.5V12
			c0-0.3-0.2-0.5-0.5-0.5H22.6z"/>
	</g>
	<g>
		<path class="st0" d="M17.4,29.5H12c-0.8,0-1.5-0.7-1.5-1.5v-5.4c0-0.8,0.7-1.5,1.5-1.5h5.4c0.8,0,1.5,0.7,1.5,1.5V28
			C18.9,28.8,18.2,29.5,17.4,29.5z M12,22.1c-0.3,0-0.5,0.2-0.5,0.5V28c0,0.3,0.2,0.5,0.5,0.5h5.4c0.3,0,0.5-0.2,0.5-0.5v-5.4
			c0-0.3-0.2-0.5-0.5-0.5H12z"/>
	</g>
	<g>
		<path class="st0" d="M28,29.5h-5.4c-0.8,0-1.5-0.7-1.5-1.5v-5.4c0-0.8,0.7-1.5,1.5-1.5H28c0.8,0,1.5,0.7,1.5,1.5V28
			C29.5,28.8,28.8,29.5,28,29.5z M22.6,22.1c-0.3,0-0.5,0.2-0.5,0.5V28c0,0.3,0.2,0.5,0.5,0.5H28c0.3,0,0.5-0.2,0.5-0.5v-5.4
			c0-0.3-0.2-0.5-0.5-0.5H22.6z"/>
	</g>
</g>
</svg>
