<?xml version="1.0" encoding="utf-8"?>
<!-- Generator: Adobe Illustrator 19.2.1, SVG Export Plug-In . SVG Version: 6.00 Build 0)  -->
<svg version="1.1" id="Layer_1" xmlns="http://www.w3.org/2000/svg" xmlns:xlink="http://www.w3.org/1999/xlink" x="0px" y="0px"
	 viewBox="0 0 40 40" enable-background="new 0 0 40 40" xml:space="preserve">
<path fill="#FFFFFF" d="M38.8,4.8c-0.9-1.6-2.7-2.5-5.1-2.5h-9.4H6.3C4,2.3,2.2,3.2,1.2,4.8c-0.9,1.6-0.8,3.6,0.4,5.7l13.7,24
	c1.2,2.1,2.8,3.2,4.7,3.2c1.8,0,3.5-1.1,4.7-3.2l13.7-24C39.5,8.4,39.7,6.4,38.8,4.8z M3.3,6c0.5-0.8,1.5-1.3,3-1.3h17.9
	c1.5,0,2.5,0.5,3,1.3c0.5,0.8,0.3,2-0.4,3.3L26,10.7c-0.4-0.2-0.9-0.3-1.5-0.3l-13.7,0c-2.4,0-4.2,0.9-5.1,2.5l-2-3.5
	C3,8,2.9,6.8,3.3,6z M20,21.3c0,0-0.1-0.1-0.2-0.2l-3.3-5.9L15.3,13c-0.1-0.1-0.1-0.2-0.1-0.2c0.1,0,0.1,0,0.3,0h9.1
	c0.1,0,0.2,0,0.3,0c0,0,0,0,0,0L20.2,21C20.1,21.1,20,21.2,20,21.3z M22.6,33.3c-0.7,1.3-1.7,2-2.6,2c-0.9,0-1.8-0.7-2.6-2L7.9,16.6
	c-0.4-1-0.5-2-0.1-2.6c0.5-0.8,1.5-1.3,3-1.3h1.9c0,0.5,0.2,1,0.4,1.5L20,26.3c1.2,2.1,2.8,3.2,4.7,3.2c0,0,0,0,0,0L22.6,33.3z
	 M36.2,9.3L27,25.5c-0.7,1-1.5,1.5-2.3,1.5c-0.9,0-1.8-0.7-2.6-2l-0.9-1.7c0.4-0.3,0.8-0.6,1.1-1.2l6.7-11.8
	c1.2-2.1,1.3-4.1,0.4-5.7c0,0,0,0,0,0h4.3c1.5,0,2.5,0.5,3,1.3C37.1,6.8,37,8,36.2,9.3z"/>
</svg>
