<?xml version="1.0" encoding="utf-8"?>
<!-- Generator: Adobe Illustrator 19.2.1, SVG Export Plug-In . SVG Version: 6.00 Build 0)  -->
<svg version="1.1" id="Layer_1" xmlns="http://www.w3.org/2000/svg" xmlns:xlink="http://www.w3.org/1999/xlink" x="0px" y="0px"
	 viewBox="0 0 200 60" style="enable-background:new 0 0 200 60;" xml:space="preserve">
<style type="text/css">
	.st0{fill:#FF405E;}
	.st1{fill:#FFFFFF;}
</style>
<g>
	<path class="st0" d="M63.6,6.4c-1.4-2.5-4.2-3.9-7.9-3.9H41.1H13.3c-3.7,0-6.5,1.4-7.9,3.9C4,8.8,4.2,12,6.1,15.2l21.2,37.2
		c1.8,3.2,4.4,5,7.2,5c2.8,0,5.4-1.8,7.2-5l21.2-37.2C64.8,12,65,8.8,63.6,6.4z M8.7,8.3c0.7-1.2,2.4-1.9,4.7-1.9h27.8
		c2.3,0,4,0.7,4.7,1.9c0.7,1.2,0.5,3.1-0.7,5.1l-1.2,2.2c-0.6-0.4-1.4-0.5-2.3-0.5l-21.3,0c-3.7,0-6.5,1.4-7.9,3.8l-3.1-5.4
		C8.2,11.4,8,9.5,8.7,8.3z M34.5,31.9c-0.1-0.1-0.2-0.2-0.2-0.3l-5.2-9.1l-1.9-3.3c-0.1-0.2-0.1-0.3-0.2-0.4c0.1,0,0.2,0,0.4,0h14.1
		c0.2,0,0.3,0,0.4,0c0,0,0,0,0,0.1l-7.2,12.7C34.7,31.8,34.6,31.9,34.5,31.9z M38.5,50.6c-1.1,2-2.6,3.1-4,3.1c-1.4,0-2.9-1.1-4-3.1
		L15.8,24.7c-0.7-1.6-0.7-3-0.2-4.1c0.7-1.2,2.4-2,4.7-2h3c0,0.8,0.2,1.6,0.7,2.4l10.6,18.7c1.8,3.2,4.4,5,7.2,5c0,0,0,0,0,0
		L38.5,50.6z M59.7,13.3L45.3,38.6C44.3,40.1,43,41,41.8,41c-1.4,0-2.9-1.1-4-3.1l-1.5-2.6c0.7-0.4,1.2-1,1.7-1.8l10.3-18.3
		c1.8-3.2,2.1-6.4,0.7-8.9c0,0,0,0,0,0h6.7c2.3,0,4,0.7,4.7,1.9C61.1,9.5,60.8,11.4,59.7,13.3z"/>
	<g>
		<path class="st1" d="M85,20.7h4.7L96,36.9l6.1-16.3h4.3l-8.3,21.2h-4.4L85,20.7z"/>
		<path class="st1" d="M135.9,20.7h3.8V24h0.1c0.1-0.3,0.3-0.7,0.7-1.1s0.9-0.9,1.4-1.3c0.6-0.4,1.3-0.7,2.1-1
			c0.8-0.3,1.7-0.4,2.6-0.4c1.6,0,2.9,0.3,4,1c1.1,0.7,2,1.6,2.6,3c0.7-1.3,1.7-2.3,2.9-3c1.3-0.7,2.5-1,3.8-1c1.6,0,3,0.3,4,0.8
			c1,0.5,1.9,1.2,2.5,2.1c0.6,0.9,1,1.9,1.2,3c0.2,1.1,0.3,2.3,0.3,3.5v12.4h-4V30.1c0-0.8-0.1-1.6-0.2-2.3c-0.1-0.7-0.3-1.4-0.7-2
			c-0.3-0.6-0.8-1-1.4-1.4c-0.6-0.3-1.4-0.5-2.4-0.5c-1.9,0-3.3,0.6-4.2,1.8c-0.8,1.2-1.3,2.7-1.3,4.6v11.6h-4V30.8
			c0-1-0.1-1.9-0.2-2.8c-0.1-0.8-0.3-1.6-0.6-2.2c-0.3-0.6-0.8-1.1-1.3-1.4c-0.6-0.3-1.4-0.5-2.4-0.5c-0.7,0-1.4,0.1-2.1,0.4
			c-0.7,0.3-1.3,0.7-1.8,1.3c-0.5,0.6-0.9,1.3-1.2,2.2c-0.3,0.9-0.4,1.9-0.4,3.1v11h-4V20.7z"/>
		<path class="st1" d="M173.2,20.7h4v3h0.1c0.8-1.1,1.8-2,3.2-2.6c1.4-0.6,2.8-0.9,4.2-0.9c1.6,0,3.1,0.3,4.5,0.9
			c1.3,0.6,2.5,1.4,3.4,2.4c0.9,1,1.7,2.2,2.2,3.6c0.5,1.4,0.8,2.8,0.8,4.4c0,1.6-0.3,3.1-0.8,4.4c-0.5,1.4-1.2,2.5-2.2,3.5
			c-0.9,1-2.1,1.8-3.4,2.4s-2.8,0.9-4.5,0.9c-1.5,0-3-0.3-4.3-1c-1.3-0.6-2.4-1.5-3.1-2.6h-0.1v8.6h-4V20.7z M184.2,23.9
			c-1.1,0-2,0.2-2.9,0.6c-0.9,0.4-1.6,0.9-2.2,1.5c-0.6,0.6-1.1,1.4-1.4,2.3c-0.3,0.9-0.5,1.9-0.5,3c0,1.1,0.2,2.1,0.5,3
			c0.3,0.9,0.8,1.7,1.4,2.3c0.6,0.6,1.3,1.1,2.2,1.5c0.9,0.4,1.8,0.6,2.9,0.6c1.1,0,2-0.2,2.9-0.6c0.9-0.4,1.6-0.9,2.2-1.5
			c0.6-0.6,1.1-1.4,1.4-2.3c0.3-0.9,0.5-1.9,0.5-3c0-1.1-0.2-2.1-0.5-3c-0.3-0.9-0.8-1.7-1.4-2.3c-0.6-0.6-1.3-1.1-2.2-1.5
			C186.2,24.1,185.3,23.9,184.2,23.9z"/>
		<path class="st1" d="M118.7,42.5c3.1,0,6.2-1.4,7.9-3.6v3h3.6V20.4h-3.6v3.2c-1.8-2.2-4.9-3.6-7.9-3.6c-5.9,0-10.6,5-10.6,11.2
			C108.1,37.5,112.8,42.5,118.7,42.5z M119.3,23.8c3.9-0.1,7,3.4,7,7.5c0,4.1-3.1,7.5-7,7.5c-4.4,0-7-3.4-7-7.5
			C112.3,27.2,115,23.9,119.3,23.8z"/>
	</g>
</g>
</svg>
