<?xml version="1.0" encoding="utf-8"?>
<!-- Generator: Adobe Illustrator 19.2.1, SVG Export Plug-In . SVG Version: 6.00 Build 0)  -->
<svg version="1.1" id="Layer_1" xmlns="http://www.w3.org/2000/svg" xmlns:xlink="http://www.w3.org/1999/xlink" x="0px" y="0px"
	 viewBox="0 0 120 30" enable-background="new 0 0 120 30" xml:space="preserve">
<g>
	<path fill="#FFFFFF" d="M0,2.4h4.5L10.6,18l5.8-15.6h4.1l-8,20.4H8.3L0,2.4z"/>
	<path fill="#FFFFFF" d="M48.8,2.4h3.6v3.2h0.1c0.1-0.3,0.3-0.6,0.7-1.1c0.4-0.4,0.8-0.8,1.4-1.2c0.6-0.4,1.2-0.7,2-1
		C57.2,2,58.1,1.9,59,1.9c1.5,0,2.8,0.3,3.8,0.9c1,0.6,1.9,1.6,2.5,2.8c0.7-1.3,1.6-2.2,2.8-2.8c1.2-0.6,2.4-0.9,3.7-0.9
		c1.6,0,2.9,0.3,3.9,0.8c1,0.5,1.8,1.2,2.4,2c0.6,0.8,1,1.8,1.2,2.9s0.3,2.2,0.3,3.3v11.9h-3.9V11.4c0-0.8-0.1-1.5-0.2-2.2
		c-0.1-0.7-0.3-1.3-0.6-1.9c-0.3-0.5-0.8-1-1.3-1.3c-0.6-0.3-1.3-0.5-2.3-0.5c-1.9,0-3.2,0.6-4,1.7c-0.8,1.1-1.2,2.6-1.2,4.4v11.1
		h-3.9V12.1c0-1-0.1-1.9-0.2-2.7C62,8.7,61.8,8,61.5,7.4c-0.3-0.6-0.7-1-1.3-1.4c-0.6-0.3-1.3-0.5-2.3-0.5c-0.7,0-1.4,0.1-2,0.4
		c-0.6,0.3-1.2,0.7-1.7,1.2c-0.5,0.5-0.9,1.2-1.2,2.1c-0.3,0.8-0.4,1.8-0.4,3v10.6h-3.9V2.4z"/>
	<path fill="#FFFFFF" d="M84.5,2.4h3.9v2.9h0.1c0.7-1.1,1.8-1.9,3.1-2.5c1.3-0.6,2.6-0.9,4-0.9c1.6,0,3,0.3,4.3,0.8
		c1.3,0.5,2.4,1.3,3.3,2.3c0.9,1,1.6,2.1,2.1,3.4c0.5,1.3,0.7,2.7,0.7,4.2c0,1.5-0.2,2.9-0.7,4.2c-0.5,1.3-1.2,2.4-2.1,3.4
		c-0.9,1-2,1.7-3.3,2.3c-1.3,0.5-2.7,0.8-4.3,0.8c-1.5,0-2.8-0.3-4.1-0.9c-1.3-0.6-2.3-1.5-3-2.5h-0.1v8.2h-3.9V2.4z M95.1,5.5
		c-1,0-2,0.2-2.8,0.5c-0.8,0.4-1.5,0.8-2.1,1.5c-0.6,0.6-1,1.4-1.3,2.2c-0.3,0.9-0.5,1.8-0.5,2.9c0,1,0.2,2,0.5,2.9
		c0.3,0.9,0.8,1.6,1.3,2.2c0.6,0.6,1.3,1.1,2.1,1.5c0.8,0.4,1.8,0.5,2.8,0.5s2-0.2,2.8-0.5c0.8-0.4,1.5-0.8,2.1-1.5
		c0.6-0.6,1-1.4,1.3-2.2c0.3-0.9,0.5-1.8,0.5-2.9c0-1-0.2-2-0.5-2.9c-0.3-0.9-0.8-1.6-1.3-2.2c-0.6-0.6-1.3-1.1-2.1-1.5
		C97,5.7,96.1,5.5,95.1,5.5z"/>
	<path fill="#FFFFFF" d="M32.3,23.4c2.9,0,5.9-1.3,7.6-3.4v2.9h3.4V2.2h-3.4v3.1c-1.7-2.1-4.7-3.4-7.6-3.4
		c-5.6,0-10.2,4.8-10.2,10.7C22.1,18.6,26.7,23.4,32.3,23.4z M32.9,5.5c3.7-0.1,6.7,3.2,6.7,7.2c0,4-3,7.2-6.7,7.2
		c-4.2,0-6.7-3.2-6.7-7.2C26.2,8.7,28.8,5.5,32.9,5.5z"/>
</g>
</svg>
