<?xml version="1.0" encoding="UTF-8"?>
<svg width="20px" height="18px" viewBox="0 0 20 18" version="1.1" xmlns="http://www.w3.org/2000/svg" xmlns:xlink="http://www.w3.org/1999/xlink">
    <!-- Generator: Sketch 45.2 (43514) - http://www.bohemiancoding.com/sketch -->
    <title>Logo</title>
    <desc>Created with Sketch.</desc>
    <defs>
        <path d="M18.3777052,3.47537938 L13.5905841,11.5771699 C13.2406523,12.0691045 12.8201589,12.3464121 12.4118313,12.3464121 C11.9428961,12.3464121 11.4582559,11.9813517 11.0831077,11.3474131 L10.5958132,10.5165711 C10.8139123,10.3903454 11.0063527,10.195171 11.1563235,9.94120652 L14.5976889,4.08554251 C15.2110651,3.04698997 15.2902532,2.03848088 14.8195484,1.24243738 C14.8164517,1.23746616 14.8133549,1.22946898 14.8102582,1.22946898 L17.0485392,1.22946898 C17.7997204,1.22946898 18.3655395,1.4551191 18.5995647,1.85238437 C18.8344747,2.24943349 18.7532958,2.83971174 18.3777052,3.47537938 L18.3777052,3.47537938 Z M11.3215569,15.4175449 C10.9459663,16.0532125 10.4613261,16.4180568 9.99239086,16.4180568 C9.52323441,16.4180568 9.03859426,16.0532125 8.66300366,15.4175449 L3.76506344,7.12814484 C3.53966484,6.61891907 3.51776645,6.15551498 3.71175523,5.82763065 C3.94622286,5.43036539 4.51182071,5.20082474 5.26300189,5.20082474 L6.24665994,5.20082474 C6.25064147,5.44679203 6.32739644,5.70680841 6.47604006,5.95861147 L10.0010175,11.9549826 C10.6146149,12.9935351 11.4708641,13.5663061 12.4118313,13.5663061 C12.4129373,13.5663061 12.4142645,13.5665222 12.4153705,13.5665222 L11.3215569,15.4175449 Z M9.99216967,9.44149091 C9.97071367,9.42009305 9.94151581,9.38486224 9.9098848,9.33125953 L8.18190264,6.40126613 L7.55746669,5.35060974 C7.52561448,5.29657475 7.50946718,5.2557243 7.50150413,5.22697768 C7.53070199,5.21919664 7.57648953,5.21314472 7.64019394,5.21314472 L12.3441454,5.21314472 C12.408071,5.21314472 12.4538585,5.21919664 12.4830564,5.22697768 C12.4810656,5.23432644 12.4786325,5.2416752 12.4753145,5.25075308 L10.0746757,9.33125953 C10.0430447,9.38486224 10.0136257,9.42009305 9.99216967,9.44149091 L9.99216967,9.44149091 Z M1.38499584,1.85238437 C1.61924227,1.4551191 2.18484012,1.22946898 2.93602131,1.22946898 L12.1868751,1.22946898 C12.9380563,1.22946898 13.5036542,1.4551191 13.7379006,1.85238437 C13.9725894,2.24943349 13.8916317,2.8405763 13.5147139,3.4781892 L13.1112527,4.16832412 C12.8949231,4.05485064 12.6336908,3.99584442 12.3441454,3.99584442 L5.26300189,3.98374059 C4.03890393,3.98374059 3.10567854,4.42055946 2.63386774,5.21314472 L1.6068553,3.4760278 C1.23126471,2.84036016 1.15008582,2.24900121 1.38499584,1.85238437 L1.38499584,1.85238437 Z M19.6814337,1.23746616 C19.2107289,0.441206516 18.2759551,6.48419903e-05 17.0485392,6.48419903e-05 L12.1868751,6.48419903e-05 L2.93602131,6.48419903e-05 C1.7090478,6.48419903e-05 0.774052839,0.441206516 0.303348021,1.23746616 C-0.167135602,2.03350966 -0.0881686751,3.04526085 0.525207482,4.08402953 L7.58135584,16.027708 C8.19495319,17.0660444 9.05142362,17.6379508 9.99239086,17.6379508 C10.9331369,17.6379508 11.7891649,17.0660444 12.4032047,16.027708 L19.459353,4.08402953 C20.0727292,3.04569313 20.1519173,2.03394194 19.6814337,1.23746616 L19.6814337,1.23746616 Z" id="path-1"></path>
    </defs>
    <g id="Menu" stroke="none" stroke-width="1" fill="none" fill-rule="evenodd">
        <g transform="translate(-79.000000, -1285.000000)" id="side-menu">
            <g transform="translate(51.000000, 1256.000000)">
                <g id="Group-14">
                    <g id="Logo" transform="translate(28.000000, 29.000000)">
                        <g id="logo">
                            <g id="Page-1" transform="translate(10.000000, 9.000000) scale(-1, 1) translate(-10.000000, -9.000000) ">
                                <mask id="mask-2" fill="white">
                                    <use xlink:href="#path-1"></use>
                                </mask>
                                <use id="Mask" fill="#FF3D5A" xlink:href="#path-1"></use>
                            </g>
                        </g>
                    </g>
                </g>
            </g>
        </g>
    </g>
</svg>