<svg id="Layer_1" data-name="Layer 1" xmlns="http://www.w3.org/2000/svg" viewBox="0 0 157.37 35.46"><title>logo-header-ui</title><path d="M38.75,4.76c-0.91-1.6-2.72-2.49-5.1-2.49H6.34c-2.37,0-4.18.89-5.1,2.49s-0.76,3.63.43,5.72l13.66,24c1.19,2.09,2.85,3.24,4.67,3.24s3.48-1.15,4.67-3.24l13.66-24C39.51,8.39,39.66,6.36,38.75,4.76ZM3.34,6a3.3,3.3,0,0,1,3-1.25H24.25a3.3,3.3,0,0,1,3,1.25,3.41,3.41,0,0,1-.43,3.27L26,10.65a3.09,3.09,0,0,0-1.49-.35l-13.71,0c-2.37,0-4.18.88-5.09,2.47l-2-3.49A3.41,3.41,0,0,1,3.34,6ZM20,21.25A1.12,1.12,0,0,1,19.84,21L16.5,15.14,15.29,13a1.06,1.06,0,0,1-.11-0.25,1.06,1.06,0,0,1,.27,0h9.1a1.06,1.06,0,0,1,.27,0l0,0L20.16,21A1.1,1.1,0,0,1,20,21.25Zm2.57,12c-0.73,1.28-1.67,2-2.57,2s-1.85-.73-2.57-2L7.95,16.6A3,3,0,0,1,7.84,14a3.3,3.3,0,0,1,3-1.26h1.9a3.21,3.21,0,0,0,.44,1.52L20,26.3c1.19,2.09,2.85,3.24,4.67,3.24h0Zm13.66-24L27,25.54a3,3,0,0,1-2.28,1.55c-0.91,0-1.85-.73-2.57-2l-0.94-1.67a3.13,3.13,0,0,0,1.08-1.16l6.66-11.77c1.19-2.09,1.34-4.12.43-5.72v0h4.33a3.3,3.3,0,0,1,3,1.25A3.41,3.41,0,0,1,36.23,9.26Z" transform="translate(-0.66 -2.27)" fill="#fff"/><path d="M52.13,12.06H56.6l6.1,15.59,5.84-15.59h4.12l-8,20.36H60.42Z" transform="translate(-0.66 -2.27)" fill="#fff"/><path d="M100.92,12.06h3.61v3.18h0.09a3.35,3.35,0,0,1,.67-1.07,6.83,6.83,0,0,1,1.37-1.22,8.48,8.48,0,0,1,2-1,7.4,7.4,0,0,1,2.51-.41,7.21,7.21,0,0,1,3.82.94,7,7,0,0,1,2.53,2.83,6.52,6.52,0,0,1,2.79-2.83,7.8,7.8,0,0,1,3.65-.94,8.44,8.44,0,0,1,3.86.77,6.23,6.23,0,0,1,2.36,2,7.8,7.8,0,0,1,1.18,2.88,16.93,16.93,0,0,1,.32,3.33V32.41H127.8V21.08a16.16,16.16,0,0,0-.15-2.23A5.18,5.18,0,0,0,127,17a3.55,3.55,0,0,0-1.33-1.31,5.5,5.5,0,0,0-6.27,1.22,7.54,7.54,0,0,0-1.2,4.42V32.41h-3.86V21.76a21.67,21.67,0,0,0-.15-2.66,6.25,6.25,0,0,0-.6-2.08,3.31,3.31,0,0,0-1.29-1.37,4.43,4.43,0,0,0-2.25-.49,5.09,5.09,0,0,0-2,.41,4.73,4.73,0,0,0-1.7,1.22,5.92,5.92,0,0,0-1.16,2.08,9.3,9.3,0,0,0-.43,3V32.41h-3.86V12.06Z" transform="translate(-0.66 -2.27)" fill="#fff"/><path d="M136.65,12.06h3.86V15h0.09a7.36,7.36,0,0,1,3.07-2.53,9.48,9.48,0,0,1,4-.9,10.79,10.79,0,0,1,4.27.82,9.46,9.46,0,0,1,3.26,2.28A10.26,10.26,0,0,1,157.3,18a11.87,11.87,0,0,1,.73,4.19,12,12,0,0,1-.73,4.23,10,10,0,0,1-2.08,3.39A9.58,9.58,0,0,1,152,32.11a10.79,10.79,0,0,1-4.27.82,9.44,9.44,0,0,1-4.12-.92,7,7,0,0,1-3-2.51h-0.09v8.24h-3.86V12.06Zm10.56,3.09a7,7,0,0,0-2.79.54,6.16,6.16,0,0,0-2.1,1.46A6.43,6.43,0,0,0,141,19.38a8.87,8.87,0,0,0,0,5.71,6.43,6.43,0,0,0,1.33,2.23,6.14,6.14,0,0,0,2.1,1.46,7.53,7.53,0,0,0,5.58,0,6.18,6.18,0,0,0,2.1-1.46,6.45,6.45,0,0,0,1.33-2.23,8.87,8.87,0,0,0,0-5.71,6.46,6.46,0,0,0-1.33-2.23,6.2,6.2,0,0,0-2.1-1.46A7,7,0,0,0,147.21,15.15Z" transform="translate(-0.66 -2.27)" fill="#fff"/><path d="M84.46,33a10,10,0,0,0,7.61-3.42v2.9h3.44V11.86H92.07V15a10,10,0,0,0-7.61-3.42,10.48,10.48,0,0,0-10.2,10.73A10.48,10.48,0,0,0,84.46,33ZM85,15.09c3.72-.06,6.73,3.21,6.73,7.18A7,7,0,0,1,85,29.45c-4.23,0-6.73-3.21-6.73-7.18S80.9,15.16,85,15.09Z" transform="translate(-0.66 -2.27)" fill="#fff"/></svg>