<?xml version="1.0" encoding="utf-8"?>
<!-- Generator: Adobe Illustrator 21.0.0, SVG Export Plug-In . SVG Version: 6.00 Build 0)  -->
<svg version="1.1" id="Layer_1" xmlns="http://www.w3.org/2000/svg" xmlns:xlink="http://www.w3.org/1999/xlink" x="0px" y="0px"
	 viewBox="0 0 65 17" style="enable-background:new 0 0 65 17;" xml:space="preserve">
<style type="text/css">
	.st0{fill:#FFFFFF;}
</style>
<title>VAMP</title>
<desc>Created with Sketch.</desc>
<g id="logo-long-colour">
	<g id="Group" transform="translate(51.000000, 13.000000)">
		<polygon id="Shape_1_" class="st0" points="-50.8,-12.1 -48.1,-12.1 -44.4,-2.5 -40.8,-12.1 -38.3,-12.1 -43.2,0.4 -45.8,0.4 		
			"/>
		<path id="Shape_2_" class="st0" d="M-21.1-12.1h2.2v2h0.1c0.1-0.2,0.2-0.4,0.4-0.6c0.2-0.2,0.5-0.5,0.9-0.7
			c0.3-0.2,0.7-0.5,1.2-0.6c0.5-0.2,0.9-0.2,1.5-0.2c0.9,0,1.7,0.2,2.4,0.6c0.6,0.4,1.2,0.9,1.6,1.7c0.4-0.8,0.9-1.3,1.7-1.7
			c0.7-0.4,1.5-0.6,2.2-0.6c0.9,0,1.7,0.2,2.4,0.5c0.6,0.3,1.1,0.7,1.4,1.3c0.3,0.6,0.6,1.1,0.7,1.7c0.2,0.6,0.2,1.3,0.2,2v7.2h-2.4
			v-6.9c0-0.5,0-0.9-0.1-1.3C-4.8-8.3-4.9-8.6-5.1-9c-0.2-0.3-0.5-0.6-0.8-0.8c-0.3-0.2-0.8-0.3-1.4-0.3c-1.1,0-2,0.3-2.4,1
			c-0.5,0.7-0.7,1.6-0.7,2.7v6.8h-2.4v-6.5c0-0.6,0-1.1-0.1-1.7c-0.1-0.5-0.2-0.9-0.4-1.3c-0.2-0.4-0.5-0.6-0.8-0.9
			s-0.8-0.3-1.3-0.3c-0.4,0-0.8,0.1-1.2,0.2c-0.4,0.2-0.7,0.4-1,0.7C-18-9-18.2-8.5-18.4-8c-0.2,0.6-0.2,1.1-0.2,1.8v6.5H-21
			L-21.1-12.1L-21.1-12.1z"/>
		<path id="Shape_3_" class="st0" d="M0.8-12.1h2.4v1.8h0.1c0.5-0.6,1.1-1.2,1.9-1.6s1.6-0.6,2.4-0.6c0.9,0,1.8,0.2,2.6,0.5
			c0.8,0.3,1.4,0.8,2,1.4c0.6,0.6,0.9,1.3,1.3,2c0.3,0.8,0.5,1.7,0.5,2.5c0,0.9-0.2,1.8-0.5,2.6s-0.7,1.5-1.3,2
			c-0.6,0.6-1.2,1-2,1.3C9.3,0.4,8.5,0.5,7.5,0.5C6.7,0.5,5.8,0.4,5,0C4.2-0.4,3.6-0.9,3.2-1.5H3.1v5H0.8V-12.1z M7.2-10.2
			c-0.6,0-1.2,0.1-1.7,0.3C5-9.6,4.5-9.3,4.2-9C3.9-8.6,3.6-8.1,3.4-7.7C3.3-7.1,3.1-6.5,3.1-5.9s0.1,1.2,0.3,1.7
			c0.2,0.6,0.5,1,0.8,1.3C4.5-2.5,5-2.1,5.5-2C6-1.7,6.6-1.7,7.2-1.7C7.9-1.7,8.4-1.7,9-2c0.5-0.2,0.9-0.6,1.3-0.9
			c0.3-0.4,0.6-0.9,0.8-1.3c0.2-0.6,0.3-1.1,0.3-1.7S11.2-7.1,11-7.7c-0.2-0.6-0.5-1-0.8-1.3C9.9-9.4,9.4-9.7,9-9.9
			C8.4-10,7.9-10.2,7.2-10.2z"/>
		<path id="Shape_4_" class="st0" d="M-31.1,0.8c1.8,0,3.6-0.8,4.6-2.1v1.7h2.1v-12.6h-2.1v1.9c-1-1.3-2.8-2.1-4.6-2.1
			c-3.5,0-6.2,2.9-6.2,6.5C-37.4-2.2-34.5,0.8-31.1,0.8z M-30.8-10.2c2.3-0.1,4.1,2,4.1,4.4s-1.8,4.4-4.1,4.4c-2.6,0-4.1-2-4.1-4.4
			S-33.3-10.2-30.8-10.2z"/>
	</g>
</g>
</svg>
