<?xml version="1.0" encoding="UTF-8"?>
<svg width="65px" height="17px" viewBox="0 0 65 17" version="1.1" xmlns="http://www.w3.org/2000/svg" xmlns:xlink="http://www.w3.org/1999/xlink">
    <!-- Generator: Sketch 46 (44423) - http://www.bohemiancoding.com/sketch -->
    <title>VAMP</title>
    <desc>Created with Sketch.</desc>
    <defs></defs>
    <g id="Menu" stroke="none" stroke-width="1" fill="none" fill-rule="evenodd">
        <g transform="translate(-514.000000, -1286.000000)" id="Menu-items" fill="#F1F6F7">
            <g transform="translate(406.000000, 1256.000000)">
                <g id="Collapsed">
                    <g id="Logo-area">
                        <g id="side-menu-logo" transform="translate(78.000000, 23.000000)">
                            <path d="M36.798,22.978 C36.864,23.11 36.974,23.22 37.172,23.22 L37.392,23.22 C37.59,23.22 37.7,23.11 37.766,22.978 L44.586,8.172 C44.718,7.886 44.542,7.6 44.212,7.6 L41.968,7.6 C41.77,7.6 41.638,7.732 41.594,7.842 L37.37,17.302 L37.216,17.302 L32.992,7.842 C32.948,7.732 32.816,7.6 32.618,7.6 L30.374,7.6 C30.044,7.6 29.868,7.886 30,8.172 L36.798,22.978 Z M45.36,23 C45.03,23 44.854,22.714 44.986,22.428 L51.828,7.622 C51.894,7.49 52.004,7.38 52.202,7.38 L52.422,7.38 C52.642,7.38 52.73,7.49 52.796,7.622 L59.572,22.428 C59.704,22.714 59.528,23 59.198,23 L57.284,23 C56.954,23 56.8,22.868 56.646,22.56 L55.568,20.184 L48.99,20.184 L47.912,22.56 C47.824,22.78 47.626,23 47.274,23 L45.36,23 Z M50.068,17.742 L54.49,17.742 L52.29,12.902 L52.224,12.902 L50.068,17.742 Z M62.062,22.494 C62.018,22.802 62.194,23 62.48,23 L64.46,23 C64.658,23 64.834,22.824 64.856,22.67 L66.132,14.332 L66.198,14.332 L70.092,22.978 C70.158,23.11 70.268,23.22 70.466,23.22 L70.862,23.22 C71.06,23.22 71.192,23.11 71.236,22.978 L75.086,14.332 L75.152,14.332 L76.45,22.67 C76.494,22.824 76.67,23 76.868,23 L78.87,23 C79.156,23 79.332,22.802 79.266,22.494 L76.67,7.71 C76.648,7.534 76.516,7.38 76.274,7.38 L75.922,7.38 C75.724,7.38 75.614,7.468 75.548,7.6 L70.708,17.984 L70.642,17.984 L65.802,7.6 C65.736,7.468 65.604,7.38 65.428,7.38 L65.076,7.38 C64.834,7.38 64.702,7.534 64.68,7.71 L62.062,22.494 Z M83.78,22.582 L83.78,8.018 C83.78,7.798 83.956,7.6 84.198,7.6 L89.368,7.6 C92.074,7.6 94.296,9.8 94.296,12.462 C94.296,15.19 92.074,17.412 89.39,17.412 L86.64,17.412 L86.64,22.582 C86.64,22.802 86.442,23 86.222,23 L84.198,23 C83.956,23 83.78,22.802 83.78,22.582 Z M86.64,14.728 L89.192,14.728 C90.424,14.728 91.458,13.738 91.458,12.44 C91.458,11.23 90.424,10.306 89.192,10.306 L86.64,10.306 L86.64,14.728 Z" id="VAMP"></path>
                        </g>
                    </g>
                </g>
            </g>
        </g>
    </g>
</svg>