<!--?xml version="1.0" encoding="utf-8"?-->
<!-- Generator: Adobe Illustrator 21.0.0, SVG Export Plug-In . SVG Version: 6.00 Build 0)  -->
<svg version="1.1" xmlns="http://www.w3.org/2000/svg" xmlns:xlink="http://www.w3.org/1999/xlink" x="0px" y="0px" viewBox="0 0 639.7 564.7" style="" xml:space="preserve">
<style type="text/css">
	.st0{fill:none;stroke:#FF3D5A;stroke-width:17;stroke-miterlimit:10;}
	.st1{fill:none;stroke:#FF3D5A;stroke-width:20;stroke-miterlimit:10;}
	.st2{fill:none;stroke:#FF3D5A;stroke-width:20;stroke-linecap:round;stroke-miterlimit:10;}
</style>
<g id="Layer_2">
	<path class="st0 rtLVBobT_0" d="M244.5,172.6"></path>
	<g>
		<path class="st1 rtLVBobT_1" d="M518.5,77.7c38.5,0.4,54,27.9,34.3,61l-195.3,330c-19.6,33.1-51.1,32.8-70-0.8L99.4,133.8
			c-18.9-33.5-2.8-60.7,35.7-60.2L518.5,77.7z"></path>
	</g>
</g>
<g id="Layer_3">
	<path id="b2" class="st2 rtLVBobT_2" d="M240.4,173.1c-0.1,0.1,50.4-0.3,107.7-0.4c27.7,0,56.9,0,82.8,0.3c29.8,0.3,41.8,2.2,53.3,7.8
		c7.2,3.5,13.7,9.3,17.1,15.4c5.1,9.3,5,18.8,5,18.8"></path>
	<path id="b" class="st2 rtLVBobT_3" d="M316.8,326.4c0.1,0-25.8-43.3-54.8-92.7c-14-23.9-28.8-49.1-41.7-71.5c-14.9-25.8-19.3-37.1-20.3-49.9
		c-0.6-7.9,1.1-16.6,4.6-22.6c5.4-9.1,13.7-13.8,13.7-13.8"></path>
	<path id="b2_1_" class="st2 rtLVBobT_4" d="M416.9,182.3c-0.1-0.1-25.9,43.3-55.5,92.3c-14.3,23.7-29.5,48.7-43.2,70.7
		c-15.7,25.3-23.5,34.6-34.3,41.6c-6.7,4.3-15.1,6.9-22.1,6.6c-10.6-0.4-18.7-5.5-18.7-5.5"></path>
</g>
<style>.rtLVBobT_0{stroke-dasharray:0 2;stroke-dashoffset:1;animation:rtLVBobT_draw_0 2400ms ease-in-out 0ms infinite,rtLVBobT_fade 2400ms linear 0ms infinite;}.rtLVBobT_1{stroke-dasharray:1421 1423;stroke-dashoffset:1422;animation:rtLVBobT_draw_1 2400ms ease-in-out 0ms infinite,rtLVBobT_fade 2400ms linear 0ms infinite;}.rtLVBobT_2{stroke-dasharray:288 290;stroke-dashoffset:289;animation:rtLVBobT_draw_2 2400ms ease-in-out 0ms infinite,rtLVBobT_fade 2400ms linear 0ms infinite;}.rtLVBobT_3{stroke-dasharray:288 290;stroke-dashoffset:289;animation:rtLVBobT_draw_3 2400ms ease-in-out 0ms infinite,rtLVBobT_fade 2400ms linear 0ms infinite;}.rtLVBobT_4{stroke-dasharray:289 291;stroke-dashoffset:290;animation:rtLVBobT_draw_4 2400ms ease-in-out 0ms infinite,rtLVBobT_fade 2400ms linear 0ms infinite;}@keyframes rtLVBobT_draw{100%{stroke-dashoffset:0;}}@keyframes rtLVBobT_fade{0%{stroke-opacity:1;}83.33333333333334%{stroke-opacity:1;}100%{stroke-opacity:0;}}@keyframes rtLVBobT_draw_0{0%{stroke-dashoffset: 1}25%{ stroke-dashoffset: 0;}100%{ stroke-dashoffset: 0;}}@keyframes rtLVBobT_draw_1{4.166666666666666%{stroke-dashoffset: 1422}29.166666666666668%{ stroke-dashoffset: 0;}100%{ stroke-dashoffset: 0;}}@keyframes rtLVBobT_draw_2{8.333333333333332%{stroke-dashoffset: 289}33.33333333333333%{ stroke-dashoffset: 0;}100%{ stroke-dashoffset: 0;}}@keyframes rtLVBobT_draw_3{12.5%{stroke-dashoffset: 289}37.5%{ stroke-dashoffset: 0;}100%{ stroke-dashoffset: 0;}}@keyframes rtLVBobT_draw_4{16.666666666666664%{stroke-dashoffset: 290}41.66666666666667%{ stroke-dashoffset: 0;}100%{ stroke-dashoffset: 0;}}</style></svg>
